<svg xmlns="http://www.w3.org/2000/svg" xmlns:xlink="http://www.w3.org/1999/xlink" width="50" zoomAndPan="magnify" viewBox="0 0 37.5 37.499999" height="50" preserveAspectRatio="xMidYMid meet" version="1.0"><defs><g/><clipPath id="66e193a22e"><path d="M 0 0 L 37.007812 0 L 37.007812 37.007812 L 0 37.007812 Z M 0 0 " clip-rule="nonzero"/></clipPath><clipPath id="366b7da711"><path d="M 0 0 L 37.007812 0 L 37.007812 37.007812 L 0 37.007812 Z M 0 0 " clip-rule="nonzero"/></clipPath><clipPath id="6fb1d441d9"><path d="M 18.75 0 C 19.980469 0 21.199219 0.121094 22.40625 0.359375 C 23.617188 0.601562 24.789062 0.957031 25.925781 1.425781 C 27.0625 1.898438 28.144531 2.476562 29.167969 3.160156 C 30.191406 3.84375 31.136719 4.621094 32.007812 5.492188 C 32.878906 6.363281 33.65625 7.308594 34.339844 8.332031 C 35.023438 9.355469 35.601562 10.4375 36.074219 11.574219 C 36.542969 12.710938 36.898438 13.882812 37.140625 15.09375 C 37.378906 16.300781 37.5 17.519531 37.5 18.75 C 37.5 19.980469 37.378906 21.199219 37.140625 22.40625 C 36.898438 23.617188 36.542969 24.789062 36.074219 25.925781 C 35.601562 27.0625 35.023438 28.144531 34.339844 29.167969 C 33.65625 30.191406 32.878906 31.136719 32.007812 32.007812 C 31.136719 32.878906 30.191406 33.65625 29.167969 34.339844 C 28.144531 35.023438 27.0625 35.601562 25.925781 36.074219 C 24.789062 36.542969 23.617188 36.898438 22.40625 37.140625 C 21.199219 37.378906 19.980469 37.5 18.75 37.5 C 17.519531 37.5 16.300781 37.378906 15.09375 37.140625 C 13.882812 36.898438 12.710938 36.542969 11.574219 36.074219 C 10.4375 35.601562 9.355469 35.023438 8.332031 34.339844 C 7.308594 33.65625 6.363281 32.878906 5.492188 32.007812 C 4.621094 31.136719 3.84375 30.191406 3.160156 29.167969 C 2.476562 28.144531 1.898438 27.0625 1.425781 25.925781 C 0.957031 24.789062 0.601562 23.617188 0.359375 22.40625 C 0.121094 21.199219 0 19.980469 0 18.75 C 0 17.519531 0.121094 16.300781 0.359375 15.09375 C 0.601562 13.882812 0.957031 12.710938 1.425781 11.574219 C 1.898438 10.4375 2.476562 9.355469 3.160156 8.332031 C 3.84375 7.308594 4.621094 6.363281 5.492188 5.492188 C 6.363281 4.621094 7.308594 3.84375 8.332031 3.160156 C 9.355469 2.476562 10.4375 1.898438 11.574219 1.425781 C 12.710938 0.957031 13.882812 0.601562 15.09375 0.359375 C 16.300781 0.121094 17.519531 0 18.75 0 L 18.75 2.625 C 17.691406 2.625 16.644531 2.726562 15.605469 2.933594 C 14.566406 3.140625 13.558594 3.445312 12.578125 3.851562 C 11.601562 4.257812 10.671875 4.753906 9.792969 5.34375 C 8.910156 5.929688 8.097656 6.597656 7.347656 7.347656 C 6.597656 8.097656 5.929688 8.910156 5.34375 9.792969 C 4.753906 10.671875 4.257812 11.601562 3.851562 12.578125 C 3.445312 13.558594 3.140625 14.566406 2.933594 15.605469 C 2.726562 16.644531 2.625 17.691406 2.625 18.75 C 2.625 19.808594 2.726562 20.855469 2.933594 21.894531 C 3.140625 22.933594 3.445312 23.941406 3.851562 24.921875 C 4.257812 25.898438 4.753906 26.828125 5.34375 27.707031 C 5.929688 28.589844 6.597656 29.402344 7.347656 30.152344 C 8.097656 30.902344 8.910156 31.570312 9.792969 32.15625 C 10.671875 32.746094 11.601562 33.242188 12.578125 33.648438 C 13.558594 34.050781 14.566406 34.359375 15.605469 34.566406 C 16.644531 34.773438 17.691406 34.875 18.75 34.875 C 19.808594 34.875 20.855469 34.773438 21.894531 34.566406 C 22.933594 34.359375 23.941406 34.050781 24.921875 33.648438 C 25.898438 33.242188 26.828125 32.746094 27.707031 32.15625 C 28.589844 31.570312 29.402344 30.902344 30.152344 30.152344 C 30.902344 29.402344 31.570312 28.589844 32.15625 27.707031 C 32.746094 26.828125 33.242188 25.898438 33.648438 24.921875 C 34.050781 23.941406 34.359375 22.933594 34.566406 21.894531 C 34.773438 20.855469 34.875 19.808594 34.875 18.75 C 34.875 17.691406 34.773438 16.644531 34.566406 15.605469 C 34.359375 14.566406 34.050781 13.558594 33.648438 12.578125 C 33.242188 11.601562 32.746094 10.671875 32.15625 9.792969 C 31.570312 8.910156 30.902344 8.097656 30.152344 7.347656 C 29.402344 6.597656 28.589844 5.929688 27.707031 5.34375 C 26.828125 4.753906 25.898438 4.257812 24.921875 3.851562 C 23.941406 3.445312 22.933594 3.140625 21.894531 2.933594 C 20.855469 2.726562 19.808594 2.625 18.75 2.625 Z M 18.75 0 " clip-rule="nonzero"/></clipPath></defs><g clip-path="url(#66e193a22e)"><path fill="#ffffff" d="M 0 0 L 37.5 0 L 37.5 45 L 0 45 Z M 0 0 " fill-opacity="1" fill-rule="nonzero"/><path fill="#ffffff" d="M 0 0 L 37.5 0 L 37.5 37.5 L 0 37.5 Z M 0 0 " fill-opacity="1" fill-rule="nonzero"/><path fill="#1f1f1f" d="M 0 0 L 37.5 0 L 37.5 37.5 L 0 37.5 Z M 0 0 " fill-opacity="1" fill-rule="nonzero"/></g><g clip-path="url(#366b7da711)"><g clip-path="url(#6fb1d441d9)"><path fill="#28e98c" d="M 0 0 L 37.5 0 L 37.5 37.5 L 0 37.5 Z M 0 0 " fill-opacity="1" fill-rule="nonzero"/><path fill="#28e98c" d="M 0 0 L 37.5 0 L 37.5 37.5 L 0 37.5 Z M 0 0 " fill-opacity="1" fill-rule="nonzero"/></g></g><g fill="#28e98c" fill-opacity="1"><g transform="translate(7.164052, 27.936102)"><g><path d="M 13.789062 -0.261719 L 7.113281 -17.4375 C 7.050781 -17.613281 6.742188 -17.613281 6.675781 -17.4375 L 0.0234375 -0.261719 C -0.0429688 -0.132812 0.0429688 0 0.242188 0 L 3.25 0 C 3.339844 0 3.449219 -0.0429688 3.46875 -0.132812 L 6.894531 -9.925781 L 10.363281 -0.132812 C 10.386719 -0.0429688 10.496094 0 10.5625 0 L 13.59375 0 C 13.746094 0 13.855469 -0.132812 13.789062 -0.261719 Z M 13.789062 -0.261719 "/></g></g></g><g fill="#28e98c" fill-opacity="1"><g transform="translate(18.883546, 27.936102)"><g><path d="M 8.058594 -9.75 C 6.808594 -10.34375 5.578125 -10.34375 5.46875 -10.34375 C 4.347656 -10.34375 3.273438 -11.003906 3.273438 -12.277344 C 3.273438 -13.679688 4.261719 -14.40625 5.46875 -14.40625 C 6.609375 -14.40625 7.578125 -13.8125 7.621094 -12.5625 C 7.621094 -12.496094 7.730469 -12.386719 7.863281 -12.386719 L 10.605469 -12.386719 C 10.761719 -12.386719 10.871094 -12.496094 10.847656 -12.5625 C 10.804688 -15.546875 8.476562 -17.566406 5.46875 -17.566406 C 2.65625 -17.566406 0 -15.570312 0 -12.277344 C 0 -10.234375 1.03125 -8.675781 2.855469 -7.839844 C 4.128906 -7.246094 5.3125 -7.246094 5.46875 -7.246094 C 6.457031 -7.203125 7.664062 -6.414062 7.664062 -5.117188 C 7.664062 -3.953125 6.632812 -3.164062 5.46875 -3.164062 C 5.46875 -3.164062 5.46875 -3.164062 5.445312 -3.164062 L 5.445312 0 C 5.46875 0 5.46875 0 5.46875 0 C 8.277344 0 10.914062 -1.824219 10.914062 -5.117188 C 10.914062 -7.179688 9.902344 -8.894531 8.058594 -9.75 Z M 8.058594 -9.75 "/></g></g></g></svg>