<svg xmlns="http://www.w3.org/2000/svg" viewBox="0 0 176 264"><path d="M0 0h176.3v264.4H0z" fill="none"/><path d="M88.1 132.2c0-24.3 19.7-44.1 44.1-44.1 24.3 0 44.1 19.7 44.1 44.1 0 24.3-19.7 44.1-44.1 44.1-24.3 0-44.1-19.8-44.1-44.1z" fill="#1abcfe"/><path d="M0 220.3c0-24.3 19.7-44.1 44.1-44.1h44.1v44.1c0 24.3-19.7 44.1-44.1 44.1-24.4 0-44.1-19.7-44.1-44.1z" fill="#0acf83"/><path d="M88.1 0v88.1h44.1c24.3 0 44.1-19.7 44.1-44.1 0-24.3-19.7-44.1-44.1-44.1H88.1z" fill="#ff7262"/><path d="M0 44.1c0 24.3 19.7 44.1 44.1 44.1h44.1V0H44.1C19.7 0 0 19.7 0 44.1z" fill="#f24e1e"/><path d="M0 132.2c0 24.3 19.7 44.1 44.1 44.1h44.1V88.1H44.1C19.7 88.1 0 107.9 0 132.2z" fill="#a259ff"/></svg>