<svg xmlns="http://www.w3.org/2000/svg" xmlns:xlink="http://www.w3.org/1999/xlink" width="200" zoomAndPan="magnify" viewBox="0 0 150 52.499999" height="70" preserveAspectRatio="xMidYMid meet" version="1.0"><defs><g/></defs><g fill="#ffffff" fill-opacity="1"><g transform="translate(1.050197, 41.24732)"><g><path d="M 5.125 0 L 1.109375 0 L 12.71875 -31.609375 L 16.671875 -31.609375 L 28.265625 0 L 24.25 0 L 21.078125 -8.953125 L 8.296875 -8.953125 Z M 9.5 -12.34375 L 19.875 -12.34375 L 14.8125 -26.609375 L 14.5625 -26.609375 Z M 9.5 -12.34375 "/></g></g></g><g fill="#ffffff" fill-opacity="1"><g transform="translate(30.420268, 41.24732)"><g><path d="M 3.328125 0 L 3.328125 -31.609375 L 6.96875 -31.609375 L 6.96875 -13.140625 L 7.40625 -13.140625 L 17.78125 -23.703125 L 22.28125 -23.703125 L 12.265625 -13.578125 L 23.015625 0 L 18.390625 0 L 9.515625 -11.234375 L 6.96875 -8.875 L 6.96875 0 Z M 3.328125 0 "/></g></g></g><g fill="#ffffff" fill-opacity="1"><g transform="translate(54.05207, 41.24732)"><g><path d="M 3.328125 0 L 3.328125 -23.703125 L 6.84375 -23.703125 L 6.84375 -20 L 7.15625 -20 C 7.65625 -21.257812 8.453125 -22.242188 9.546875 -22.953125 C 10.648438 -23.660156 11.972656 -24.015625 13.515625 -24.015625 C 15.078125 -24.015625 16.378906 -23.660156 17.421875 -22.953125 C 18.472656 -22.242188 19.289062 -21.257812 19.875 -20 L 20.125 -20 C 20.726562 -21.21875 21.632812 -22.191406 22.84375 -22.921875 C 24.0625 -23.648438 25.519531 -24.015625 27.21875 -24.015625 C 29.34375 -24.015625 31.078125 -23.351562 32.421875 -22.03125 C 33.765625 -20.707031 34.4375 -18.648438 34.4375 -15.859375 L 34.4375 0 L 30.796875 0 L 30.796875 -15.859375 C 30.796875 -17.609375 30.316406 -18.859375 29.359375 -19.609375 C 28.398438 -20.359375 27.273438 -20.734375 25.984375 -20.734375 C 24.316406 -20.734375 23.023438 -20.234375 22.109375 -19.234375 C 21.191406 -18.234375 20.734375 -16.96875 20.734375 -15.4375 L 20.734375 0 L 17.03125 0 L 17.03125 -16.234375 C 17.03125 -17.578125 16.59375 -18.660156 15.71875 -19.484375 C 14.84375 -20.316406 13.71875 -20.734375 12.34375 -20.734375 C 11.394531 -20.734375 10.507812 -20.484375 9.6875 -19.984375 C 8.875 -19.484375 8.21875 -18.785156 7.71875 -17.890625 C 7.21875 -17.003906 6.96875 -15.976562 6.96875 -14.8125 L 6.96875 0 Z M 3.328125 0 "/></g></g></g><g fill="#ffffff" fill-opacity="1"><g transform="translate(91.813597, 41.24732)"><g><path d="M 10.3125 0.5625 C 8.8125 0.5625 7.445312 0.273438 6.21875 -0.296875 C 4.988281 -0.867188 4.015625 -1.695312 3.296875 -2.78125 C 2.578125 -3.863281 2.21875 -5.179688 2.21875 -6.734375 C 2.21875 -8.085938 2.484375 -9.1875 3.015625 -10.03125 C 3.554688 -10.882812 4.273438 -11.550781 5.171875 -12.03125 C 6.066406 -12.519531 7.054688 -12.882812 8.140625 -13.125 C 9.222656 -13.363281 10.316406 -13.554688 11.421875 -13.703125 C 12.859375 -13.890625 14.023438 -14.03125 14.921875 -14.125 C 15.828125 -14.21875 16.488281 -14.382812 16.90625 -14.625 C 17.320312 -14.863281 17.53125 -15.273438 17.53125 -15.859375 L 17.53125 -15.984375 C 17.53125 -17.503906 17.113281 -18.6875 16.28125 -19.53125 C 15.457031 -20.375 14.207031 -20.796875 12.53125 -20.796875 C 10.789062 -20.796875 9.425781 -20.414062 8.4375 -19.65625 C 7.445312 -18.894531 6.753906 -18.082031 6.359375 -17.21875 L 2.90625 -18.453125 C 3.519531 -19.890625 4.34375 -21.007812 5.375 -21.8125 C 6.40625 -22.625 7.535156 -23.191406 8.765625 -23.515625 C 9.992188 -23.847656 11.207031 -24.015625 12.40625 -24.015625 C 13.164062 -24.015625 14.039062 -23.921875 15.03125 -23.734375 C 16.03125 -23.554688 16.992188 -23.1875 17.921875 -22.625 C 18.847656 -22.070312 19.617188 -21.234375 20.234375 -20.109375 C 20.859375 -18.992188 21.171875 -17.492188 21.171875 -15.609375 L 21.171875 0 L 17.53125 0 L 17.53125 -3.203125 L 17.34375 -3.203125 C 17.09375 -2.691406 16.679688 -2.140625 16.109375 -1.546875 C 15.535156 -0.960938 14.769531 -0.460938 13.8125 -0.046875 C 12.851562 0.359375 11.6875 0.5625 10.3125 0.5625 Z M 10.859375 -2.71875 C 12.304688 -2.71875 13.523438 -3 14.515625 -3.5625 C 15.503906 -4.125 16.253906 -4.851562 16.765625 -5.75 C 17.273438 -6.644531 17.53125 -7.585938 17.53125 -8.578125 L 17.53125 -11.90625 C 17.375 -11.726562 17.035156 -11.5625 16.515625 -11.40625 C 15.992188 -11.257812 15.394531 -11.128906 14.71875 -11.015625 C 14.050781 -10.910156 13.398438 -10.816406 12.765625 -10.734375 C 12.128906 -10.660156 11.617188 -10.597656 11.234375 -10.546875 C 10.285156 -10.429688 9.398438 -10.234375 8.578125 -9.953125 C 7.765625 -9.679688 7.109375 -9.273438 6.609375 -8.734375 C 6.109375 -8.203125 5.859375 -7.472656 5.859375 -6.546875 C 5.859375 -5.273438 6.328125 -4.316406 7.265625 -3.671875 C 8.210938 -3.035156 9.410156 -2.71875 10.859375 -2.71875 Z M 10.859375 -2.71875 "/></g></g></g><g fill="#ffffff" fill-opacity="1"><g transform="translate(116.309223, 41.24732)"><g><path d="M 6.96875 -31.609375 L 6.96875 0 L 3.328125 0 L 3.328125 -31.609375 Z M 6.96875 -31.609375 "/></g></g></g><g fill="#ffffff" fill-opacity="1"><g transform="translate(126.613434, 41.24732)"><g><path d="M 5.984375 0.25 C 5.222656 0.25 4.566406 -0.0195312 4.015625 -0.5625 C 3.472656 -1.113281 3.203125 -1.769531 3.203125 -2.53125 C 3.203125 -3.289062 3.472656 -3.941406 4.015625 -4.484375 C 4.566406 -5.035156 5.222656 -5.3125 5.984375 -5.3125 C 6.742188 -5.3125 7.394531 -5.035156 7.9375 -4.484375 C 8.488281 -3.941406 8.765625 -3.289062 8.765625 -2.53125 C 8.765625 -1.769531 8.488281 -1.113281 7.9375 -0.5625 C 7.394531 -0.0195312 6.742188 0.25 5.984375 0.25 Z M 5.984375 0.25 "/></g></g></g></svg>